<svg width="33" height="33" viewBox="0 0 33 33" fill="none" xmlns="http://www.w3.org/2000/svg">
<rect y="0.922363" width="32.091" height="31.601" rx="15.8005" fill="#030B1A"/>
<path d="M16.0458 7.94727C11.1547 7.94727 7.18848 11.9757 7.18848 16.9453C7.18848 20.9209 9.72637 24.2937 13.2457 25.4835C13.6883 25.5668 13.8509 25.2883 13.8509 25.0507C13.8509 24.8361 13.8426 24.1272 13.8389 23.3754C11.3747 23.9197 10.8547 22.3137 10.8547 22.3137C10.4518 21.2737 9.87127 20.9972 9.87127 20.9972C9.06768 20.4387 9.93185 20.4501 9.93185 20.4501C10.8213 20.5136 11.2896 21.3774 11.2896 21.3774C12.0796 22.753 13.3617 22.3553 13.8671 22.1255C13.9466 21.5438 14.1762 21.1469 14.4295 20.9222C12.4622 20.6947 10.394 19.9231 10.394 16.4754C10.394 15.493 10.74 14.6903 11.3067 14.0602C11.2147 13.8335 10.9115 12.9183 11.3925 11.6789C11.3925 11.6789 12.1362 11.4371 13.8288 12.6013C14.5353 12.4018 15.2931 12.3019 16.0458 12.2985C16.7985 12.3019 17.5568 12.4018 18.2647 12.6013C19.9553 11.4371 20.698 11.6789 20.698 11.6789C21.1801 12.9183 20.8769 13.8335 20.7849 14.0602C21.3528 14.6903 21.6964 15.4929 21.6964 16.4754C21.6964 19.9313 19.6244 20.6923 17.6521 20.915C17.9697 21.1943 18.2528 21.7419 18.2528 22.5813C18.2528 23.7853 18.2425 24.7543 18.2425 25.0507C18.2425 25.2901 18.402 25.5707 18.851 25.4823C22.3684 24.2912 24.9031 20.9196 24.9031 16.9453C24.9031 11.9757 20.9374 7.94727 16.0458 7.94727Z" fill="white"/>
<path d="M10.5058 20.7649C10.4863 20.8096 10.417 20.823 10.354 20.7924C10.2897 20.763 10.2536 20.702 10.2745 20.6571C10.2936 20.6111 10.3629 20.5983 10.427 20.6292C10.4914 20.6585 10.5281 20.72 10.5058 20.7649V20.7649ZM10.9415 21.1599C10.8992 21.1997 10.8166 21.1812 10.7606 21.1183C10.7027 21.0556 10.6918 20.9717 10.7347 20.9313C10.7782 20.8916 10.8583 20.9101 10.9164 20.9729C10.9743 21.0364 10.9856 21.1198 10.9414 21.16L10.9415 21.1599ZM11.2404 21.6653C11.1861 21.7036 11.0973 21.6677 11.0425 21.5877C10.9882 21.5077 10.9882 21.4117 11.0437 21.3732C11.0987 21.3348 11.1861 21.3693 11.2416 21.4488C11.2958 21.5301 11.2958 21.6261 11.2403 21.6654L11.2404 21.6653ZM11.7458 22.2507C11.6973 22.305 11.5939 22.2905 11.5182 22.2162C11.4408 22.1437 11.4192 22.0407 11.4679 21.9863C11.517 21.9318 11.621 21.9471 11.6973 22.0207C11.7742 22.0931 11.7977 22.1969 11.7459 22.2507H11.7458ZM12.3991 22.4483C12.3778 22.5188 12.2782 22.5508 12.1778 22.5209C12.0777 22.49 12.0121 22.4075 12.0323 22.3362C12.0532 22.2653 12.1532 22.2319 12.2543 22.264C12.3543 22.2947 12.42 22.3766 12.3992 22.4483H12.3991ZM13.1427 22.5321C13.1452 22.6064 13.0601 22.6679 12.9548 22.6693C12.8488 22.6716 12.7632 22.6115 12.7621 22.5385C12.7621 22.4636 12.8452 22.4026 12.9511 22.4008C13.0564 22.3987 13.1427 22.4583 13.1427 22.5321V22.5321ZM13.873 22.5037C13.8857 22.5761 13.8125 22.6505 13.7079 22.6702C13.6051 22.6893 13.5099 22.6446 13.4968 22.5728C13.484 22.4986 13.5586 22.4243 13.6612 22.405C13.766 22.3865 13.8597 22.43 13.873 22.5037" fill="white"/>
</svg>
