<svg width="32" height="32" viewBox="0 0 32 32" fill="none" xmlns="http://www.w3.org/2000/svg">
<rect width="32" height="32" rx="16" fill="#030B1A"/>
<path d="M16.0458 7.0249C11.1547 7.0249 7.18848 11.0534 7.18848 16.0229C7.18848 19.9985 9.72637 23.3714 13.2457 24.5612C13.6883 24.6444 13.8509 24.366 13.8509 24.1283C13.8509 23.9138 13.8426 23.2049 13.8389 22.453C11.3747 22.9973 10.8547 21.3914 10.8547 21.3914C10.4518 20.3513 9.87127 20.0748 9.87127 20.0748C9.06768 19.5163 9.93185 19.5278 9.93185 19.5278C10.8213 19.5913 11.2896 20.4551 11.2896 20.4551C12.0796 21.8307 13.3617 21.4329 13.8671 21.2031C13.9466 20.6215 14.1762 20.2246 14.4295 19.9999C12.4622 19.7723 10.394 19.0008 10.394 15.553C10.394 14.5707 10.74 13.7679 11.3067 13.1378C11.2147 12.9111 10.9115 11.996 11.3925 10.7566C11.3925 10.7566 12.1362 10.5147 13.8288 11.6789C14.5353 11.4795 15.2931 11.3796 16.0458 11.3762C16.7985 11.3796 17.5568 11.4795 18.2647 11.6789C19.9553 10.5147 20.698 10.7566 20.698 10.7566C21.1801 11.996 20.8769 12.9111 20.7849 13.1378C21.3528 13.7679 21.6964 14.5706 21.6964 15.553C21.6964 19.0089 19.6244 19.77 17.6521 19.9927C17.9697 20.2719 18.2528 20.8195 18.2528 21.659C18.2528 22.8629 18.2425 23.8319 18.2425 24.1283C18.2425 24.3677 18.402 24.6483 18.851 24.56C22.3684 23.3688 24.9031 19.9972 24.9031 16.0229C24.9031 11.0534 20.9374 7.0249 16.0458 7.0249Z" fill="white"/>
<path d="M10.5058 19.8426C10.4863 19.8872 10.417 19.9006 10.354 19.87C10.2897 19.8407 10.2536 19.7797 10.2745 19.7348C10.2936 19.6888 10.3629 19.6759 10.427 19.7068C10.4914 19.7361 10.5281 19.7977 10.5058 19.8426V19.8426ZM10.9415 20.2376C10.8992 20.2774 10.8166 20.2589 10.7606 20.196C10.7027 20.1332 10.6918 20.0494 10.7347 20.0089C10.7782 19.9692 10.8583 19.9878 10.9164 20.0506C10.9743 20.114 10.9856 20.1974 10.9414 20.2376L10.9415 20.2376ZM11.2404 20.743C11.1861 20.7813 11.0973 20.7453 11.0425 20.6653C10.9882 20.5853 10.9882 20.4893 11.0437 20.4509C11.0987 20.4124 11.1861 20.447 11.2416 20.5264C11.2958 20.6078 11.2958 20.7038 11.2403 20.743L11.2404 20.743ZM11.7458 21.3283C11.6973 21.3827 11.5939 21.3681 11.5182 21.2939C11.4408 21.2213 11.4192 21.1183 11.4679 21.0639C11.517 21.0094 11.621 21.0247 11.6973 21.0983C11.7742 21.1708 11.7977 21.2745 11.7459 21.3283H11.7458ZM12.3991 21.526C12.3778 21.5964 12.2782 21.6284 12.1778 21.5985C12.0777 21.5677 12.0121 21.4851 12.0323 21.4139C12.0532 21.3429 12.1532 21.3095 12.2543 21.3416C12.3543 21.3723 12.42 21.4542 12.3992 21.526H12.3991ZM13.1427 21.6097C13.1452 21.684 13.0601 21.7456 12.9548 21.7469C12.8488 21.7492 12.7632 21.6892 12.7621 21.6162C12.7621 21.5412 12.8452 21.4802 12.9511 21.4785C13.0564 21.4763 13.1427 21.536 13.1427 21.6097V21.6097ZM13.873 21.5813C13.8857 21.6537 13.8125 21.7281 13.7079 21.7479C13.6051 21.7669 13.5099 21.7223 13.4968 21.6505C13.484 21.5762 13.5586 21.5019 13.6612 21.4826C13.766 21.4641 13.8597 21.5077 13.873 21.5813" fill="white"/>
</svg>
