<svg width="32" height="32" viewBox="0 0 32 32" fill="none" xmlns="http://www.w3.org/2000/svg">
<rect width="32" height="32" rx="16" fill="#0A66C2"/>
<path d="M7.88037 10.0244C7.88037 9.5177 8.05786 9.0997 8.41283 8.77037C8.7678 8.44103 9.22928 8.27637 9.79723 8.27637C10.355 8.27637 10.8064 8.43849 11.1512 8.76277C11.5062 9.09717 11.6837 9.5329 11.6837 10.07C11.6837 10.5564 11.5112 10.9617 11.1664 11.286C10.8114 11.6204 10.3449 11.7876 9.7668 11.7876H9.75159C9.19377 11.7876 8.74245 11.6204 8.39762 11.286C8.05278 10.9516 7.88037 10.531 7.88037 10.0244ZM8.07814 23.3245V13.1708H11.4555V23.3245H8.07814ZM13.3267 23.3245H16.704V17.6548C16.704 17.3001 16.7446 17.0265 16.8257 16.834C16.9677 16.4895 17.1832 16.1981 17.4723 15.96C17.7613 15.7219 18.1239 15.6028 18.56 15.6028C19.6959 15.6028 20.2639 16.3679 20.2639 17.898V23.3245H23.6412V17.5028C23.6412 16.0031 23.2862 14.8656 22.5763 14.0904C21.8663 13.3152 20.9282 12.9276 19.7618 12.9276C18.4535 12.9276 17.4342 13.49 16.704 14.6148V14.6452H16.6888L16.704 14.6148V13.1708H13.3267C13.347 13.4951 13.3571 14.5033 13.3571 16.1956C13.3571 17.8879 13.347 20.2642 13.3267 23.3245Z" fill="white"/>
</svg>
