<svg width="32" height="33" viewBox="0 0 32 33" fill="none" xmlns="http://www.w3.org/2000/svg">
<rect y="0.922363" width="31.5217" height="31.601" rx="15.7608" fill="#0A66C2"/>
<path d="M7.88037 10.9467C7.88037 10.4401 8.05786 10.0221 8.41283 9.69273C8.7678 9.36339 9.22928 9.19873 9.79723 9.19873C10.355 9.19873 10.8064 9.36085 11.1512 9.68513C11.5062 10.0195 11.6837 10.4553 11.6837 10.9923C11.6837 11.4787 11.5112 11.8841 11.1664 12.2083C10.8114 12.5427 10.3449 12.71 9.7668 12.71H9.75159C9.19377 12.71 8.74245 12.5427 8.39762 12.2083C8.05278 11.8739 7.88037 11.4534 7.88037 10.9467ZM8.07814 24.2468V14.0932H11.4555V24.2468H8.07814ZM13.3267 24.2468H16.704V18.5772C16.704 18.2225 16.7446 17.9489 16.8257 17.7564C16.9677 17.4118 17.1832 17.1205 17.4723 16.8824C17.7613 16.6442 18.1239 16.5252 18.56 16.5252C19.6959 16.5252 20.2639 17.2902 20.2639 18.8204V24.2468H23.6412V18.4252C23.6412 16.9254 23.2862 15.788 22.5763 15.0128C21.8663 14.2376 20.9282 13.85 19.7618 13.85C18.4535 13.85 17.4342 14.4124 16.704 15.5372V15.5676H16.6888L16.704 15.5372V14.0932H13.3267C13.347 14.4174 13.3571 15.4257 13.3571 17.118C13.3571 18.8102 13.347 21.1865 13.3267 24.2468Z" fill="white"/>
</svg>
