<svg width="32" height="32" viewBox="0 0 32 32" fill="none" xmlns="http://www.w3.org/2000/svg">
<rect width="32" height="32" rx="16" fill="#030B1A"/>
<path fill-rule="evenodd" clip-rule="evenodd" d="M10.6893 9.76504C11.197 10.218 11.3806 10.1822 12.331 10.1107L21.2847 9.51473C21.4791 9.51473 21.3171 9.3002 21.2523 9.27635L19.7618 8.09639C19.481 7.85801 19.0922 7.57196 18.3686 7.64347L9.70649 8.34668C9.39328 8.38244 9.32847 8.56122 9.45808 8.69234L10.6893 9.76504ZM11.2294 12.0654V22.4586C11.2294 23.0189 11.4778 23.2215 12.0502 23.1857L21.8896 22.554C22.462 22.5183 22.5268 22.1368 22.5268 21.6839V11.3622C22.5268 10.9093 22.3648 10.659 22.0192 10.6947L11.737 11.3622C11.359 11.3979 11.2294 11.6124 11.2294 12.0654ZM20.9391 12.6256C21.0039 12.9355 20.9391 13.2573 20.6583 13.2931L20.1831 13.4003V21.0761C19.7727 21.3145 19.3946 21.4575 19.0706 21.4575C18.563 21.4575 18.4334 21.2787 18.0553 20.7543L14.9556 15.3788V20.5755L15.9384 20.8139C15.9384 20.8139 15.9384 21.4455 15.15 21.4455L12.9683 21.5886C12.9035 21.4455 12.9683 21.0999 13.1843 21.0284L13.7567 20.8496V13.9844L12.9683 13.9128C12.9035 13.6029 13.0655 13.15 13.5083 13.1142L15.852 12.9355L19.0814 18.3705V13.5672L18.2606 13.4599C18.1957 13.0785 18.455 12.7924 18.7682 12.7567L20.9391 12.6256ZM8.98285 7.39318L18.0013 6.66612C19.103 6.55885 19.3946 6.63036 20.0858 7.19055L22.9588 9.41939C23.434 9.80082 23.596 9.90808 23.596 10.3252V22.566C23.596 23.3288 23.3476 23.7817 22.462 23.8532L11.9962 24.5564C11.3266 24.5922 11.0134 24.4849 10.6677 23.9962L8.54003 20.9569C8.16201 20.3967 8 19.9795 8 19.4909V8.6089C8 7.9772 8.25921 7.46469 8.98285 7.39318Z" fill="white"/>
</svg>
