<svg width="32" height="33" viewBox="0 0 32 33" fill="none" xmlns="http://www.w3.org/2000/svg">
<rect y="0.922363" width="31.5217" height="31.601" rx="15.7608" fill="#030B1A"/>
<g clip-path="url(#clip0_2203_2357)">
<path fill-rule="evenodd" clip-rule="evenodd" d="M10.6893 10.6874C11.197 11.1403 11.3806 11.1046 12.331 11.0331L21.2847 10.4371C21.4791 10.4371 21.3171 10.2226 21.2523 10.1987L19.7618 9.01875C19.481 8.78038 19.0922 8.49432 18.3686 8.56583L9.70649 9.26905C9.39328 9.30481 9.32847 9.48359 9.45808 9.6147L10.6893 10.6874ZM11.2294 12.9877V23.381C11.2294 23.9413 11.4778 24.1439 12.0502 24.1081L21.8896 23.4764C22.462 23.4406 22.5268 23.0592 22.5268 22.6063V12.2845C22.5268 11.8316 22.3648 11.5813 22.0192 11.6171L11.737 12.2845C11.359 12.3203 11.2294 12.5348 11.2294 12.9877ZM20.9391 13.548C21.0039 13.8578 20.9391 14.1796 20.6583 14.2154L20.1831 14.3227V21.9985C19.7727 22.2368 19.3946 22.3798 19.0706 22.3798C18.563 22.3798 18.4334 22.2011 18.0553 21.6767L14.9556 16.3012V21.4978L15.9384 21.7362C15.9384 21.7362 15.9384 22.3679 15.15 22.3679L12.9683 22.5109C12.9035 22.3679 12.9683 22.0223 13.1843 21.9508L13.7567 21.772V14.9067L12.9683 14.8352C12.9035 14.5253 13.0655 14.0724 13.5083 14.0366L15.852 13.8578L19.0814 19.2929V14.4895L18.2606 14.3823C18.1957 14.0009 18.455 13.7148 18.7682 13.679L20.9391 13.548ZM8.98285 8.31554L18.0013 7.58848C19.103 7.48121 19.3946 7.55273 20.0858 8.11292L22.9588 10.3418C23.434 10.7232 23.596 10.8304 23.596 11.2476V23.4883C23.596 24.2511 23.3476 24.704 22.462 24.7755L11.9962 25.4788C11.3266 25.5145 11.0134 25.4073 10.6677 24.9186L8.54003 21.8793C8.16201 21.3191 8 20.9019 8 20.4132V9.53127C8 8.89956 8.25921 8.38705 8.98285 8.31554Z" fill="white"/>
</g>
<defs>
<clipPath id="clip0_2203_2357">
<rect width="15.9562" height="19.9955" fill="white" transform="translate(8 6.9209)"/>
</clipPath>
</defs>
</svg>
