<svg width="32" height="32" viewBox="0 0 32 32" fill="none" xmlns="http://www.w3.org/2000/svg">
<rect width="32" height="32" rx="16" fill="#20C997"/>
<g clip-path="url(#clip0_2293_152)">
<rect width="14.959" height="14.9966" transform="translate(7.97803 8.99805)" fill="white"/>
<path d="M4.65001 1.49951C2.60545 1.49951 0.959473 3.17164 0.959473 5.24867V27.7436C0.959473 29.8206 2.60545 31.4928 4.65001 31.4928H26.7932C28.8378 31.4928 30.4838 29.8206 30.4838 27.7436V5.24867C30.4838 3.17164 28.8378 1.49951 26.7932 1.49951H4.65001ZM13.1173 9.31026C13.8923 9.31026 14.3537 9.68517 14.5013 10.435L16.301 20.8114C16.8731 20.0428 17.3418 19.3955 17.7108 18.8706C18.2829 18.0458 18.8094 17.0985 19.2891 16.03C19.7874 14.9615 20.0371 14.0054 20.0371 13.1619C20.0371 12.6558 19.8981 12.2533 19.6213 11.9534C19.363 11.6347 18.8733 11.2323 18.1537 10.7449C18.8918 9.7889 19.8144 9.31026 20.9216 9.31026C21.5121 9.31026 22.0017 9.48897 22.3892 9.84514C22.7952 10.2013 22.9969 10.7249 22.9969 11.4198C22.9969 12.582 22.5171 14.0354 21.5576 15.7788C20.6165 17.5034 18.8008 20.0991 16.1067 23.5671L13.3671 23.762L11.2622 11.7297H8.49432V10.5475C9.23243 10.3038 10.0997 10.0401 11.0961 9.76015C12.0926 9.46022 12.7667 9.31026 13.1173 9.31026Z" fill="#20C997"/>
</g>
<defs>
<clipPath id="clip0_2293_152">
<rect width="14.959" height="14.9966" fill="white" transform="translate(7.97803 8.99805)"/>
</clipPath>
</defs>
</svg>
