<svg width="32" height="33" viewBox="0 0 32 33" fill="none" xmlns="http://www.w3.org/2000/svg">
<rect y="0.922363" width="31.5217" height="31.601" rx="15.7608" fill="#20C997"/>
<g clip-path="url(#clip0_2203_2359)">
<rect width="14.959" height="14.9966" transform="translate(7.97803 9.92041)" fill="white"/>
<path d="M4.65001 2.42188C2.60545 2.42188 0.959473 4.094 0.959473 6.17103V28.666C0.959473 30.743 2.60545 32.4151 4.65001 32.4151H26.7932C28.8378 32.4151 30.4838 30.743 30.4838 28.666V6.17103C30.4838 4.094 28.8378 2.42188 26.7932 2.42188H4.65001ZM13.1173 10.2326C13.8923 10.2326 14.3537 10.6075 14.5013 11.3574L16.301 21.7338C16.8731 20.9652 17.3418 20.3179 17.7108 19.793C18.2829 18.9682 18.8094 18.0209 19.2891 16.9524C19.7874 15.8838 20.0371 14.9278 20.0371 14.0843C20.0371 13.5781 19.8981 13.1757 19.6213 12.8758C19.363 12.5571 18.8733 12.1547 18.1537 11.6673C18.8918 10.7113 19.8144 10.2326 20.9216 10.2326C21.5121 10.2326 22.0017 10.4113 22.3892 10.7675C22.7952 11.1237 22.9969 11.6473 22.9969 12.3421C22.9969 13.5044 22.5171 14.9578 21.5576 16.7012C20.6165 18.4258 18.8008 21.0214 16.1067 24.4894L13.3671 24.6844L11.2622 12.6521H8.49432V11.4698C9.23243 11.2261 10.0997 10.9625 11.0961 10.6825C12.0926 10.3826 12.7667 10.2326 13.1173 10.2326Z" fill="#20C997"/>
</g>
<defs>
<clipPath id="clip0_2203_2359">
<rect width="14.959" height="14.9966" fill="white" transform="translate(7.97803 9.92041)"/>
</clipPath>
</defs>
</svg>
